3 Ring Circus is a 1954 film comedy starring Dean Martin and Jerry Lewis. The picture was shot from February 17 to March 31, 1954 and released on December 25 by Paramount Pictures. The supporting cast includes Joanne Dru, Zsa Zsa Gabor, Wallace Ford, Sig Ruman, Nick Cravat, and Elsa Lanchester.

The film was the first starring Martin and Lewis to be shot in VistaVision. A clip from it was shown in a promotional short film, Paramount Presents VistaVision.

More information at this link. http://en.wikipedia.org/wiki/3_Ring_Circus

Format                                   : AVI
Format/Info                              : Audio Video Interleave
File size                                : 699 MiB
Duration                                 : 1h 44mn
Overall bit rate mode                    : Variable
Overall bit rate                         : 937 Kbps
Writing application                      : VirtualDubMod 1.5.4.1 (build 2178/release)
Writing library                          : VirtualDubMod build 2178/release

Video
ID                                       : 0
Format                                   : MPEG-4 Visual
Format settings, BVOP                    : 1
Format settings, QPel                    : No
Format settings, GMC                     : No warppoints
Format settings, Matrix                  : Default (H.263)
Muxing mode                              : Packed bitstream
Codec ID                                 : DX50
Codec ID/Hint                            : DivX 5
Duration                                 : 1h 44mn
Bit rate                                 : 785 Kbps
Width                                    : 240 pixels
Height                                   : 192 pixels
Display aspect ratio                     : 5:4
Frame rate                               : 29.970 fps
Color space                              : YUV
Chroma subsampling                       : 4:2:0
Bit depth                                : 8 bits
Scan type                                : Progressive
Compression mode                         : Lossy
Bits/(Pixel*Frame)                       : 0.569
Stream size                              : 586 MiB (84%)
Writing library                          : DivX 5.1.1 (Maupiti) (UTC 2003-11-19)

Audio
ID                                       : 1
Format                                   : MPEG Audio
Format version                           : Version 1
Format profile                           : Layer 3
Mode                                     : Joint stereo
Mode extension                           : MS Stereo
Codec ID                                 : 55
Codec ID/Hint                            : MP3
Duration                                 : 1h 44mn
Bit rate mode                            : Variable
Bit rate                                 : 138 Kbps
Nominal bit rate                         : 128 Kbps
Channel(s)                               : 2 channels
Sampling rate                            : 48.0 KHz
Compression mode                         : Lossy
Stream size                              : 103 MiB (15%)
Alignment                                : Aligned on interleaves
Interleave, duration                     : 24 ms (0.72 video frame)
Interleave, preload duration             : 133 ms
Writing library                          : LAME3.96r
Encoding settings                        : -m j -V 4 -q 2 -lowpass 17.5 --abr 128


Enjoy and please seed.